<?xml version="1.0" standalone="no"?>
<!DOCTYPE svg PUBLIC "-//W3C//DTD SVG 20010904//EN"
 "http://www.w3.org/TR/2001/REC-SVG-20010904/DTD/svg10.dtd">
<svg version="1.0" xmlns="http://www.w3.org/2000/svg"
 width="798.000000pt" height="1280.000000pt" viewBox="0 0 798.000000 1280.000000"
 preserveAspectRatio="xMidYMid meet">
<metadata>
Created by potrace 1.15, written by Peter Selinger 2001-2017
</metadata>
<g transform="translate(0.000000,1280.000000) scale(0.100000,-0.100000)"
fill="#000000" stroke="none">
<path d="M4150 12750 c0 -19 -7 -20 -167 -20 -153 0 -361 -12 -439 -25 -27 -5
-33 -2 -38 18 -5 20 -11 23 -36 19 -23 -3 -30 -9 -30 -26 0 -20 -10 -23 -133
-44 -73 -12 -212 -42 -308 -66 -169 -42 -181 -42 -192 -13 -1 5 -15 3 -31 -3
-21 -7 -27 -15 -23 -29 4 -16 -12 -25 -117 -61 -143 -50 -317 -120 -401 -162
l-59 -30 -14 20 c-13 20 -15 20 -39 5 -17 -12 -23 -22 -19 -38 5 -18 -4 -26
-52 -49 -83 -41 -273 -155 -377 -226 -76 -53 -93 -60 -108 -50 -15 9 -23 8
-39 -6 -10 -10 -17 -26 -15 -36 4 -12 -27 -43 -109 -111 -63 -52 -164 -143
-225 -201 -87 -84 -114 -104 -127 -97 -20 11 -57 -31 -48 -55 4 -10 -20 -46
-68 -104 -78 -93 -200 -253 -255 -333 -25 -36 -37 -46 -51 -42 -25 8 -53 -42
-37 -66 7 -12 -2 -36 -42 -103 -59 -101 -153 -285 -187 -366 -16 -39 -29 -56
-45 -60 -28 -7 -48 -58 -28 -70 10 -7 1 -42 -39 -162 -28 -84 -65 -210 -83
-280 -26 -107 -35 -128 -50 -128 -11 0 -19 -6 -19 -12 0 -7 -3 -23 -6 -35 -5
-17 -2 -23 10 -23 20 0 20 3 -4 -155 -11 -71 -23 -199 -26 -282 -7 -140 -9
-153 -26 -153 -14 0 -18 -8 -18 -35 0 -27 4 -35 18 -35 17 0 19 -13 25 -152 4
-84 16 -216 27 -292 19 -125 19 -141 6 -148 -28 -16 -17 -79 13 -71 14 4 20
-9 35 -74 28 -119 81 -298 119 -399 29 -78 32 -92 19 -101 -24 -14 -8 -63 21
-63 18 0 28 -13 51 -67 37 -88 169 -343 212 -410 28 -44 31 -54 18 -61 -13 -7
-13 -13 -3 -36 10 -21 18 -26 34 -22 18 5 32 -10 88 -92 36 -53 106 -146 156
-207 150 -182 144 -174 133 -188 -7 -8 -5 -19 9 -36 16 -19 22 -21 34 -11 13
11 34 -6 138 -106 98 -96 195 -179 336 -291 3 -2 -1 -9 -7 -15 -9 -9 -7 -17
10 -35 20 -21 23 -22 39 -7 17 15 21 14 56 -13 60 -47 247 -164 374 -235 95
-52 115 -67 108 -80 -6 -12 -2 -20 18 -33 25 -17 27 -17 39 0 12 17 20 15 116
-28 135 -60 282 -118 391 -153 78 -26 87 -31 82 -50 -4 -16 1 -23 18 -28 35
-9 47 -7 47 9 0 19 -2 19 110 -11 116 -31 289 -68 393 -84 42 -7 77 -16 77
-20 0 -4 -20 -245 -45 -536 -42 -496 -56 -665 -106 -1239 -50 -586 -119 -1405
-119 -1414 0 -5 -52 -34 -115 -64 -86 -42 -134 -58 -192 -67 -298 -44 -613
-119 -868 -205 -345 -116 -590 -238 -809 -405 -83 -63 -212 -155 -286 -205
-96 -64 -146 -104 -172 -140 -87 -114 -104 -247 -49 -360 37 -74 85 -120 216
-207 223 -147 503 -253 900 -342 974 -217 2279 -283 3395 -171 493 50 1022
144 1345 239 405 120 619 222 757 363 104 105 140 174 140 266 0 139 -118 277
-367 428 -39 23 -95 63 -125 89 -198 171 -528 342 -876 453 -234 76 -624 164
-885 200 -41 6 -269 115 -269 129 0 10 -92 1093 -160 1888 -67 783 -110 1303
-108 1305 2 1 48 10 103 19 55 9 108 19 118 22 11 3 17 0 17 -10 0 -21 17 -29
46 -22 16 4 24 13 24 29 0 20 11 25 98 46 116 28 305 87 420 129 45 17 82 28
82 24 1 -24 18 -32 44 -22 23 8 27 15 22 33 -5 20 0 25 32 36 64 23 302 139
415 203 101 56 109 59 121 42 13 -17 14 -17 39 2 19 15 23 24 16 37 -8 14 3
25 63 64 99 63 203 140 325 239 86 70 103 81 114 68 10 -13 15 -12 35 7 18 17
21 25 12 36 -9 11 18 43 129 156 76 78 170 179 207 224 57 70 71 81 86 73 14
-8 21 -4 35 17 17 25 17 27 1 39 -11 8 -13 14 -6 19 17 11 221 323 269 413 40
74 47 83 68 77 19 -4 25 0 34 22 8 22 7 30 -6 39 -15 11 -15 15 4 51 34 68
127 294 166 406 35 100 40 108 60 103 18 -5 24 -1 29 17 9 36 7 44 -13 50 -18
4 -17 10 14 138 18 74 43 199 55 279 28 180 24 170 55 170 21 0 25 5 25 30 0
26 -4 30 -26 30 -25 0 -26 2 -20 41 8 52 8 466 0 518 -6 39 -5 41 20 41 23 0
26 4 26 36 0 33 -2 35 -27 32 -26 -3 -28 -1 -35 52 -23 168 -71 405 -104 511
-3 12 3 19 21 23 26 7 32 29 16 55 -6 9 -18 11 -34 7 -24 -6 -27 -2 -53 77
-35 108 -126 331 -165 408 -31 62 -29 78 9 79 15 0 15 3 0 35 -12 28 -20 30
-48 15 -16 -9 -22 -5 -36 22 -43 83 -178 302 -239 386 l-66 93 23 19 23 19
-22 23 c-18 17 -25 20 -35 10 -7 -7 -17 -12 -24 -12 -6 0 -48 45 -92 99 -45
54 -136 153 -203 220 -116 115 -122 122 -106 139 16 17 15 20 -8 42 -24 22
-26 23 -44 6 -19 -17 -22 -15 -108 56 -99 84 -200 159 -318 238 -44 29 -82 55
-84 57 -3 2 1 9 7 15 18 18 15 32 -10 47 -19 12 -24 11 -39 -8 l-18 -22 -68
42 c-79 49 -337 180 -420 214 -50 20 -58 27 -58 50 0 28 -27 50 -51 41 -8 -3
-14 -13 -14 -22 0 -11 -5 -14 -17 -9 -83 32 -418 137 -496 156 -91 22 -98 25
-94 46 7 37 -57 49 -66 12 -4 -15 -11 -19 -24 -15 -65 20 -415 68 -568 78 -33
3 -41 7 -43 26 -5 30 -62 33 -62 2z m-9 -84 c3 -3 -11 -343 -20 -493 -1 -10
-37 -13 -143 -13 -79 -1 -188 -5 -243 -10 -55 -5 -101 -8 -102 -7 -1 1 -26
113 -55 249 l-54 247 50 6 c135 17 555 32 567 21z m352 -32 c122 -15 326 -50
333 -56 4 -5 -121 -537 -128 -543 -3 -3 -34 8 -70 24 -80 37 -194 66 -315 82
l-93 13 0 185 c0 102 -3 217 -7 255 l-6 69 84 -7 c46 -4 137 -14 202 -22z
m-1004 -256 c19 -136 32 -250 29 -253 -3 -3 -34 -14 -69 -24 -35 -10 -71 -21
-79 -24 -10 -5 -20 3 -30 25 -31 66 -111 85 -280 66 l-65 -8 -70 166 c-38 91
-71 168 -73 172 -4 13 257 74 513 121 96 17 86 37 124 -241z m1560 148 c161
-44 437 -140 434 -152 -3 -17 -315 -719 -323 -728 -13 -14 -97 34 -153 88 -68
67 -217 232 -217 243 -1 4 23 137 52 296 39 217 55 287 66 287 8 0 71 -15 141
-34z m-2269 -50 c0 -2 25 -75 55 -161 30 -87 55 -164 55 -171 0 -8 -8 -14 -17
-14 -21 0 -245 -67 -376 -111 -49 -17 -95 -28 -102 -25 -8 3 -53 63 -100 133
l-85 128 48 24 c75 38 226 100 372 152 135 48 150 52 150 45z m2832 -147 c71
-28 336 -161 420 -211 l68 -40 -73 -107 c-41 -58 -144 -211 -231 -338 -87
-128 -160 -233 -163 -233 -3 0 -48 24 -101 54 -54 30 -137 74 -187 98 -49 23
-92 44 -94 46 -7 4 293 752 301 752 4 0 31 -9 60 -21z m-3394 -238 c73 -130
81 -151 61 -151 -19 0 -302 -112 -394 -156 l-90 -43 -82 82 c-46 45 -83 84
-83 87 1 18 479 309 510 310 3 0 38 -58 78 -129z m1896 1 c4 -8 -11 -362 -43
-1027 -6 -110 -16 -328 -23 -484 -7 -156 -15 -275 -20 -265 -14 36 -381 1755
-375 1760 16 16 452 31 461 16z m211 -16 c50 -8 119 -21 154 -31 82 -21 201
-74 201 -90 0 -6 -33 -153 -74 -326 -41 -173 -109 -457 -150 -632 l-75 -318
-64 -62 -65 -62 -6 230 c-3 126 -8 415 -11 640 -3 226 -8 467 -11 538 -3 70
-2 127 3 127 4 0 49 -7 98 -14z m-747 -326 c23 -162 75 -537 117 -834 42 -296
75 -540 73 -542 -5 -5 -529 1219 -528 1236 0 8 22 76 49 150 27 74 55 161 62
193 l12 57 71 21 c39 11 76 22 81 24 6 1 13 0 16 -4 3 -3 25 -139 47 -301z
m2680 225 c96 -64 274 -199 346 -263 l37 -32 -292 -299 -292 -299 -103 84
c-57 46 -137 107 -178 135 l-75 52 18 26 c10 14 72 109 138 211 243 375 293
450 298 450 3 0 49 -29 103 -65z m-1370 -208 c60 -72 154 -150 210 -174 25
-10 32 -18 27 -31 -3 -9 -59 -135 -123 -281 l-117 -263 -82 -38 c-45 -21 -113
-59 -152 -84 -64 -41 -71 -43 -66 -23 6 27 185 1008 185 1015 0 10 61 -53 118
-121z m-3249 8 l71 -85 -43 -26 c-80 -51 -162 -118 -267 -220 l-105 -102 -75
55 c-41 30 -82 58 -90 63 -12 7 -8 16 25 50 78 81 389 349 406 350 4 0 39 -38
78 -85z m2166 -736 c85 -399 155 -730 155 -737 0 -8 -19 -12 -55 -12 -30 0
-55 1 -55 3 0 2 -47 333 -105 737 -98 680 -110 772 -100 745 2 -5 74 -336 160
-736z m373 -279 l2 -285 -35 -40 -34 -40 -1 55 c0 45 45 1061 52 1165 3 52 15
-558 16 -855z m2640 754 c111 -114 272 -300 272 -315 0 -4 -93 -72 -207 -152
-115 -79 -270 -187 -345 -240 l-137 -96 -46 57 c-26 31 -92 105 -147 165
l-100 107 287 295 c158 162 292 295 298 295 6 0 63 -52 125 -116z m-1399 -70
c142 -75 171 -93 171 -106 0 -5 -35 -60 -77 -122 l-78 -114 -115 -7 c-63 -4
-153 -13 -199 -21 -46 -8 -85 -13 -86 -12 -2 2 40 110 92 240 l95 237 36 -15
c21 -8 93 -44 161 -80z m-1949 -551 c144 -337 259 -616 256 -621 -5 -9 -115
-37 -120 -30 -2 1 -76 219 -165 483 -90 264 -184 541 -209 615 -28 85 -43 143
-39 154 4 11 9 17 11 15 2 -2 122 -279 266 -616z m-2312 442 c39 -33 71 -63
71 -66 1 -4 -26 -51 -60 -104 -33 -53 -89 -154 -123 -225 l-62 -127 -134 63
c-73 36 -136 66 -138 69 -12 11 173 262 295 403 36 40 59 59 67 55 7 -5 45
-35 84 -68z m2337 -983 c-1 -1 -95 136 -209 305 -193 288 -206 311 -206 353 0
44 20 166 41 245 35 133 12 176 204 -390 95 -280 172 -511 170 -513z m2290
865 c39 -28 105 -79 148 -115 l79 -65 -29 -29 -29 -29 -85 34 c-96 39 -198 66
-276 74 -29 3 -53 8 -53 11 0 2 28 49 63 103 l62 98 25 -16 c14 -9 57 -38 95
-66z m-1198 21 c-3 -8 -6 -5 -6 6 -1 11 2 17 5 13 3 -3 4 -12 1 -19z m-42
-230 c-33 -180 -57 -260 -71 -245 -3 2 19 106 48 230 29 124 54 224 56 222 2
-2 -13 -95 -33 -207z m2623 95 c75 -96 291 -448 280 -458 -1 -2 -160 -74 -351
-160 l-348 -156 -52 58 c-28 32 -94 102 -147 155 -52 54 -96 101 -97 105 -2 8
665 491 679 492 3 1 20 -16 36 -36z m-1020 -197 c87 -88 103 -113 50 -73 -18
14 -64 44 -103 67 -38 23 -71 44 -73 45 -5 4 31 45 38 45 4 0 43 -38 88 -84z
m-5310 -128 c56 -33 102 -63 102 -67 0 -3 -18 -62 -40 -131 -22 -69 -51 -171
-63 -228 -13 -57 -25 -104 -28 -105 -2 -1 -95 25 -206 58 -186 55 -202 61
-197 80 9 34 160 335 209 418 l46 78 37 -22 c20 -12 83 -48 140 -81z m2434
-218 c181 -268 186 -276 171 -267 -7 5 -44 52 -82 105 -38 53 -93 128 -123
165 -47 59 -128 200 -128 224 0 13 16 -10 162 -227z m4251 -57 c69 -150 183
-450 174 -459 -1 -1 -146 -38 -322 -82 -222 -55 -322 -76 -328 -68 -4 6 -30
49 -58 96 -27 47 -77 123 -110 169 -33 46 -61 88 -62 93 -2 9 635 326 659 327
6 1 27 -34 47 -76z m-6940 -292 c114 -43 209 -80 211 -82 1 -2 -1 -51 -5 -109
-8 -97 1 -274 17 -335 6 -23 4 -25 -22 -20 -16 3 -153 21 -304 41 -151 19
-275 36 -277 37 -11 12 151 547 166 547 3 0 100 -36 214 -79z m7151 -283 c40
-144 106 -501 94 -513 -3 -3 -595 -45 -635 -45 -1 0 -5 17 -9 38 -19 115 -47
236 -70 305 -14 43 -24 80 -23 81 2 2 144 44 314 94 171 50 311 91 312 91 1 1
8 -23 17 -51z m-7212 -328 c170 -33 312 -60 317 -60 5 0 17 -21 28 -48 11 -26
46 -90 79 -142 58 -94 58 -96 55 -160 -1 -36 -4 -66 -5 -67 -1 -1 -163 -7
-361 -12 -198 -6 -393 -13 -434 -16 l-74 -5 7 132 c6 116 19 244 42 396 4 28
11 42 22 42 8 0 154 -27 324 -60z m7323 -346 c8 -86 3 -480 -6 -488 -4 -4
-671 72 -675 77 -1 1 4 45 11 97 7 52 16 148 20 213 5 77 11 117 18 118 7 0
138 15 292 33 154 19 292 34 307 35 26 1 26 0 33 -85z m-6752 -109 c18 -25 18
-25 -8 -25 -20 0 -25 5 -25 25 0 31 10 31 33 0z m-440 -141 l347 -6 0 -52 c0
-28 5 -89 10 -136 5 -47 12 -112 16 -146 l6 -61 -63 -11 c-35 -6 -219 -40
-409 -77 -190 -36 -352 -67 -360 -68 -12 -2 -19 21 -32 98 -19 118 -38 319
-38 411 l0 66 88 -6 c48 -3 243 -9 435 -12z m660 -61 c76 -56 257 -144 355
-173 41 -12 72 -23 70 -25 -3 -3 -166 -36 -582 -116 -28 -5 -53 -6 -57 -2 -13
15 -46 344 -36 360 3 4 46 7 97 5 91 -3 92 -4 153 -49z m6244 -234 c139 -7
258 -16 265 -20 9 -6 7 -39 -10 -146 -22 -134 -78 -387 -91 -409 -4 -6 -116
24 -316 86 -170 52 -316 98 -323 101 -11 4 -8 35 16 159 17 85 34 177 38 204
l7 49 81 -6 c44 -4 194 -12 333 -18z m-5633 -8 c12 -5 -30 -15 -120 -29 -223
-35 -251 -34 -74 2 194 40 171 36 194 27z m351 -61 c50 -5 139 -10 199 -10 60
0 107 -2 104 -5 -5 -5 -216 -83 -937 -347 -212 -77 -390 -142 -397 -145 -7 -3
-20 18 -34 54 -25 66 -94 313 -88 317 9 7 1026 153 1043 150 11 -2 61 -8 110
-14z m3410 -30 c73 -17 181 -57 173 -65 -2 -2 -77 14 -168 36 -91 21 -173 39
-182 39 -9 0 -20 4 -23 10 -8 14 100 3 200 -20z m-2925 -8 c0 -9 -490 -175
-497 -169 -4 5 457 174 480 176 9 0 17 -3 17 -7z m3210 -384 c499 -257 587
-305 577 -315 -2 -2 -24 5 -48 16 -24 10 -141 59 -259 109 -227 95 -992 415
-1048 439 l-32 13 30 60 30 60 103 -51 c56 -29 347 -178 647 -331z m-216 281
c163 -37 267 -65 280 -76 90 -77 205 -186 271 -259 l79 -87 -269 138 c-149 76
-274 141 -280 145 -5 4 -97 51 -202 104 -106 53 -193 99 -193 103 0 3 12 2 28
-2 15 -4 144 -33 286 -66z m-3004 -43 c-11 -35 -26 -69 -33 -74 -7 -5 -246
-141 -532 -302 -286 -161 -566 -319 -623 -351 l-102 -58 -27 42 c-30 46 -163
305 -163 315 0 4 39 20 88 35 143 46 1303 427 1357 446 28 10 52 16 54 15 1
-2 -7 -32 -19 -68z m-1665 -73 c15 -60 41 -146 57 -192 16 -45 28 -84 26 -86
-2 -1 -122 -45 -268 -98 -146 -53 -325 -119 -398 -146 l-133 -50 -19 43 c-44
103 -158 501 -147 512 2 3 114 21 248 40 134 20 309 46 389 59 80 12 161 23
181 24 l36 1 28 -107z m4669 -453 c340 -261 613 -476 608 -478 -8 -2 -1300
823 -1320 843 -5 5 81 116 88 113 3 -2 284 -217 624 -478z m324 95 l522 -218
-31 -56 c-38 -68 -152 -241 -159 -241 -5 0 -1041 798 -1056 813 -4 4 39 -12
97 -36 57 -24 339 -142 627 -262z m-603 -321 c552 -614 561 -624 547 -624 -11
0 -1132 1047 -1132 1056 0 7 94 103 100 103 3 0 221 -241 485 -535z m-2810
484 c-8 -18 -50 -104 -93 -190 l-78 -157 -199 -161 c-110 -89 -216 -168 -235
-177 -35 -15 -300 -84 -372 -97 l-37 -7 -72 96 c-39 53 -69 99 -66 102 8 7
1151 621 1159 622 4 1 1 -14 -7 -31z m4719 -58 c170 -38 310 -71 313 -73 15
-15 -198 -537 -219 -537 -18 0 -598 301 -598 310 0 5 5 12 11 16 25 15 97 192
144 351 2 6 12 9 22 7 10 -2 157 -36 327 -74z m-1611 -385 c301 -192 545 -353
544 -357 -4 -16 -230 -259 -237 -256 -4 2 -191 208 -415 458 -224 250 -421
470 -439 489 -17 19 -24 30 -15 25 9 -5 262 -166 562 -359z m-554 -303 c215
-353 395 -650 398 -659 4 -10 2 -14 -4 -10 -6 4 -163 215 -350 469 l-338 463
-46 135 c-25 74 -55 157 -65 183 -16 41 -17 49 -4 57 8 5 15 8 16 7 1 -1 178
-291 393 -645z m-3974 491 c20 -43 63 -126 96 -186 34 -60 59 -110 57 -111 -1
-1 -158 -89 -348 -196 -190 -106 -355 -199 -366 -207 -21 -13 -24 -10 -73 74
-62 106 -197 377 -206 414 l-7 27 394 130 c216 71 398 130 405 131 7 1 28 -34
48 -76z m4190 -403 c215 -200 423 -394 463 -433 l72 -69 -26 -22 c-15 -11 -79
-60 -143 -108 -89 -67 -119 -84 -127 -75 -6 7 -159 255 -339 552 -180 297
-332 547 -338 555 -17 23 21 -12 438 -400z m1615 90 c201 -84 373 -156 382
-161 15 -8 12 -18 -26 -86 -94 -171 -257 -413 -277 -413 -5 0 -157 113 -337
252 -180 138 -328 252 -329 253 -1 1 35 58 81 129 46 70 90 141 96 157 9 20
18 29 29 26 9 -3 180 -73 381 -157z m-5580 -80 c6 -10 33 -49 61 -85 28 -37
49 -68 47 -70 -1 -1 -50 -10 -108 -20 -58 -9 -153 -28 -212 -41 -273 -64 -296
-179 -83 -411 l72 -78 -91 -73 -91 -73 -34 38 c-118 133 -341 434 -325 440 5
2 171 91 369 198 198 106 365 194 372 194 7 1 17 -8 23 -19z m3974 -654 l109
-148 -24 -19 c-29 -22 -281 -149 -296 -149 -6 0 -61 134 -123 298 l-113 297
-8 150 c-4 83 -10 166 -14 185 -8 34 35 -22 469 -614z m1021 498 c17 -14 21
-21 10 -16 -30 16 -61 41 -50 41 6 0 24 -11 40 -25z m277 -263 l348 -223 -48
-61 c-55 -71 -352 -379 -362 -375 -4 2 -131 142 -283 312 l-277 308 109 113
c60 62 117 125 126 139 11 17 22 23 29 18 6 -5 167 -109 358 -231z m-1674
-322 c89 -237 114 -324 59 -207 -13 29 -59 126 -101 215 -68 145 -76 166 -70
202 4 23 9 41 13 41 3 0 48 -113 99 -251z m1042 199 l33 -43 -36 34 c-32 30
-46 51 -34 51 2 0 19 -19 37 -42z m278 -358 c132 -123 238 -228 236 -232 -17
-27 -309 -248 -426 -322 l-57 -36 -202 333 c-111 182 -208 341 -215 352 -13
19 -8 25 74 82 48 34 116 86 152 116 l65 54 66 -61 c37 -34 175 -162 307 -286z
m-1378 51 c45 -95 78 -177 73 -181 -10 -10 -196 -73 -282 -95 -74 -19 -75 -18
-85 57 -7 48 -5 53 54 144 33 51 79 132 102 179 22 47 44 82 48 78 5 -4 45
-86 90 -182z m-3624 24 c48 -42 143 -118 211 -171 67 -53 125 -100 129 -105 5
-8 -151 -199 -163 -199 -14 0 -227 183 -330 283 l-122 119 92 73 c51 41 93 74
93 75 1 0 41 -34 90 -75z m4295 -27 c8 -15 8 -18 0 -14 -6 4 -16 16 -22 28 -8
15 -8 18 0 14 6 -4 16 -16 22 -28z m159 -339 c215 -293 241 -333 227 -344 -61
-44 -523 -273 -532 -263 -7 8 -286 760 -283 763 2 2 46 24 98 48 52 25 127 64
165 86 39 21 72 40 75 40 4 1 116 -148 250 -330z m-1181 84 c0 -25 -1 -25 -8
-8 -5 11 -7 23 -4 28 8 14 13 7 12 -20z m640 -349 c95 -201 171 -367 170 -368
-2 -2 -44 -18 -94 -36 -174 -64 -479 -150 -490 -138 -6 5 -147 791 -142 793 1
1 47 14 102 29 55 15 136 40 180 56 44 16 85 29 90 29 6 1 88 -164 184 -365z
m-709 286 c-8 -5 -23 -10 -34 -10 -16 0 -15 2 5 19 16 13 27 16 34 10 6 -7 5
-13 -5 -19z m-2749 -13 c89 -68 256 -176 341 -219 l86 -44 -60 -105 c-34 -57
-62 -105 -64 -107 -11 -15 -529 301 -522 319 5 13 162 189 169 189 3 0 26 -15
50 -33z m2859 -382 c45 -176 90 -350 100 -387 l18 -67 -51 -10 c-96 -19 -179
-32 -182 -29 -3 4 -65 746 -65 780 0 23 5 28 43 36 23 5 45 6 49 3 4 -3 43
-150 88 -326z m-2271 55 c116 -39 268 -77 369 -91 45 -7 82 -15 82 -19 0 -6
-100 -293 -104 -297 -7 -8 -354 124 -499 190 l-77 36 56 93 c59 97 73 118 82
118 2 0 43 -13 91 -30z m1005 -112 c-6 -46 -34 -383 -34 -414 0 -25 -2 -25
-42 -19 -141 22 -501 105 -514 118 -2 2 24 75 59 163 l63 159 188 7 c103 3
190 9 193 12 4 3 26 6 49 6 42 0 43 0 38 -32z"/>
</g>
</svg>
